<svg xmlns="http://www.w3.org/2000/svg" width="24" height="24" viewBox="0 0 24 24" version="1.1" style="background-color: #171df1" id="Instagram-Logo--Streamline-Ultimate.svg">
	<path d="M5.784 1.14408C4.800672 1.247448 3.9262080000000004 1.593 3.132 2.191992C2.885112 2.378208 2.378208 2.885112 2.191992 3.132C1.6610880000000001 3.835944 1.3284 4.6052159999999995 1.1839680000000001 5.462928000000001C1.142136 5.711376 1.1400000000000001 6.02724 1.1400000000000001 12C1.1400000000000001 19.017816 1.125888 18.425832000000003 1.3091760000000001 19.094568C1.548576 19.968144 1.9789679999999998 20.702160000000003 2.638392 21.361608C3.29784 22.021032 4.031856 22.451424 4.905432 22.690824000000003C5.574168 22.874112 4.982184 22.86 12 22.86C19.017816 22.86 18.425832000000003 22.874112 19.094568 22.690824000000003C19.968144 22.451424 20.702160000000003 22.021032 21.361608 21.361608C22.021032 20.702160000000003 22.451424 19.968144 22.690824000000003 19.094568C22.874112 18.425832000000003 22.86 19.017816 22.86 12C22.86 4.982184 22.874112 5.574168 22.690824000000003 4.905432C22.451424 4.031856 22.021032 3.29784 21.361608 2.638392C20.59008 1.866888 19.726248000000002 1.413144 18.612000000000002 1.194096L18.348 1.142208 12.108 1.1387280000000002C8.676 1.136808 5.8302000000000005 1.139208 5.784 1.14408M5.7 2.675712C4.289784 2.89752 3.10788 3.970656 2.746344 5.35752C2.63808 5.772792 2.640864 5.59752 2.640864 12C2.640864 18.496416 2.6363760000000003 18.243408000000002 2.7594 18.681888C2.942928 19.335888 3.2646479999999998 19.876344000000003 3.7473120000000004 20.341344000000003C4.321872 20.894856 4.992168 21.221664 5.796 21.340152C6.114768000000001 21.387144 17.885232 21.387144 18.204 21.340152C19.04496 21.216192000000003 19.767024 20.848824 20.341344000000003 20.252688C20.894856 19.678128 21.221664 19.007832 21.340152 18.204C21.387144 17.885232 21.387144 6.114768000000001 21.340152 5.796C21.221664 4.992168 20.894856 4.321872 20.341344000000003 3.7473120000000004C19.780848 3.165552 19.06692 2.7942 18.278015999999997 2.6740559999999998C17.971152 2.627328 5.9976 2.6288880000000003 5.7 2.675712M7.764 4.0937280000000005C6.832176 4.2363599999999995 5.99376 4.6608 5.32728 5.32728C4.6542 6.00036 4.231224 6.840888 4.093464 7.779072C4.060704 8.0022 4.056 8.531208 4.056 12C4.056 15.468792 4.060704 15.997800000000002 4.093464 16.220928C4.231224 17.159112 4.6542 17.99964 5.32728 18.672719999999998C6.00036 19.3458 6.840888 19.768776 7.779072 19.906536C8.0022 19.939296 8.531208 19.944 12 19.944C15.468792 19.944 15.997800000000002 19.939296 16.220928 19.906536C17.159112 19.768776 17.99964 19.3458 18.672719999999998 18.672719999999998C19.3458 17.99964 19.768776 17.159112 19.906536 16.220928C19.939296 15.997800000000002 19.944 15.468792 19.944 12C19.944 8.531208 19.939296 8.0022 19.906536 7.779072C19.768776 6.840888 19.3458 6.00036 18.672719999999998 5.32728C17.99964 4.6542 17.159112 4.231224 16.220928 4.093464C15.997224000000001 4.060608 15.47448 4.056288 11.972928000000001 4.058328C8.710512 4.060224 7.940472000000001 4.066704 7.764 4.0937280000000005M8.156208 5.568744000000001C7.885007999999999 5.593464 7.712256 5.6297999999999995 7.470672 5.71296C6.502104 6.046320000000001 5.79204 6.8763119999999995 5.598 7.901928000000001C5.559096 8.107656 5.556 8.407584 5.556 11.976C5.556 16.166832000000003 5.551512 16.019808 5.6926559999999995 16.464C6.017736 17.487144 6.901968 18.244128 7.968 18.411888C8.268024 18.45912 15.731976000000001 18.45912 16.032 18.411888C16.632144 18.317448 17.170272 18.041976000000002 17.606136000000003 17.606136000000003C18.041976000000002 17.170272 18.317448 16.632144 18.411888 16.032C18.45912 15.731976000000001 18.45912 8.268024 18.411888 7.968C18.246216 6.9152640000000005 17.497728000000002 6.030600000000001 16.493807999999998 5.701008C16.038936 5.5516559999999995 16.282536 5.559864 12.144 5.554584C10.065 5.551944 8.270496 5.558304000000001 8.156208 5.568744000000001M15.9 6.897648C15.731256000000002 6.951143999999999 15.606696 7.02792 15.478152 7.157616C15.006383999999999 7.6336319999999995 15.153383999999999 8.43084 15.766512 8.721384C15.911688 8.790168 15.943728 8.796 16.176576 8.796C16.412136 8.796 16.439616 8.790840000000001 16.584816 8.71932C17.182464 8.424984 17.329848000000002 7.655112000000001 16.880496 7.174752C16.744392 7.029216000000001 16.60728 6.944232 16.434336000000002 6.8982C16.27956 6.856992000000001 16.029024 6.856751999999999 15.9 6.897648M11.808 8.103888C10.220856000000001 8.183904 8.837280000000002 9.22596 8.307960000000001 10.74C8.074704 11.407248000000001 8.040887999999999 12.249408 8.2188 12.960768000000002C8.532024 14.213088 9.495648 15.256992 10.74 15.69204C11.407464 15.925392 12.252936 15.959232 12.960768000000002 15.780912C14.323968 15.437544 15.44112 14.320488000000001 15.7812 12.960768000000002C15.931512 12.359808 15.931416 11.636616 15.780912 11.039232C15.464352 9.782496 14.506104000000002 8.744280000000002 13.26 8.307888C12.845544 8.162735999999999 12.263232 8.080919999999999 11.808 8.103888M11.676 9.624912C10.693632 9.77796 9.933576 10.45872 9.680544 11.412216C9.625656000000001 11.619072 9.616896 11.699784 9.616896 12C9.616896 12.300216 9.625656000000001 12.380927999999999 9.680544 12.587784C9.910368 13.453872 10.548792 14.089824 11.421144 14.321736000000001C11.618208 14.374104 11.702928 14.383104000000001 12 14.383104000000001C12.297072000000002 14.383104000000001 12.381792 14.374104 12.578856000000002 14.321736000000001C13.021104000000001 14.204160000000002 13.374552000000001 14.002464000000002 13.68852 13.68852C14.002464000000002 13.374552000000001 14.204160000000002 13.021104000000001 14.321736000000001 12.578856000000002C14.374104 12.381792 14.383104000000001 12.297072000000002 14.383104000000001 12C14.383104000000001 11.702928 14.374104 11.618208 14.321736000000001 11.421144C14.041632 10.367496 13.156512 9.651984 12.084 9.612264000000001C11.9388 9.606888 11.7552 9.612576 11.676 9.624912" stroke="none" fill="#ffffff" fill-rule="evenodd"></path>
</svg>